<svg width="76" height="44" viewBox="0 0 76 44" fill="none" xmlns="http://www.w3.org/2000/svg">
<rect width="76" height="44" fill="white"/>
<path d="M48.6956 13H27.3044C25.4822 13 24 14.4825 24 16.3046V19.365V20.345L24.9698 20.4841C25.5304 20.5645 25.9533 21.052 25.9533 21.6181C25.9533 22.1839 25.5306 22.6714 24.9703 22.7518L24 22.8905V23.8709V26.9318C24 28.7535 25.4822 30.236 27.3044 30.236H48.6956C50.5177 30.236 52 28.7535 52 26.9318V23.8913V22.8124L50.9222 22.762C50.3097 22.7333 49.8297 22.2307 49.8297 21.6182C49.8297 21.0057 50.3097 20.5031 50.9227 20.474L52 20.4232V19.3448V16.3047C52 14.4825 50.5177 13 48.6956 13ZM50.8694 19.3448C49.6616 19.4018 48.6991 20.3963 48.6991 21.6182C48.6991 22.8402 49.6616 23.8347 50.8694 23.8912V26.9318C50.8694 28.1321 49.8961 29.1054 48.6956 29.1054H27.3044C26.1038 29.1054 25.1306 28.1321 25.1306 26.9318V23.8709C26.2344 23.7128 27.0838 22.7659 27.0838 21.6181C27.0838 20.4704 26.2344 19.5236 25.1306 19.365V16.3046C25.1306 15.1039 26.1039 14.1306 27.3044 14.1306H48.6956C49.8961 14.1306 50.8694 15.1039 50.8694 16.3046V19.3448Z" fill="#4B4B4B" stroke="black"/>
<path d="M31.2381 25.7832H30.4902V27.7339H31.2381V25.7832Z" fill="#4B4B4B" stroke="black"/>
<path d="M31.2381 22.3562H30.4902V24.3069H31.2381V22.3562Z" fill="#4B4B4B" stroke="black"/>
<path d="M31.2381 18.9292H30.4902V20.8802H31.2381V18.9292Z" fill="#4B4B4B" stroke="black"/>
<path d="M31.2381 15.5022H30.4902V17.4528H31.2381V15.5022Z" fill="#4B4B4B" stroke="black"/>
</svg>
