<svg width="24" height="24" viewBox="0 0 24 24" fill="none" xmlns="http://www.w3.org/2000/svg">
<path fill-rule="evenodd" clip-rule="evenodd" d="M3.09961 6.0001C3.09961 5.50304 3.50255 5.1001 3.99961 5.1001H19.9996C20.4967 5.1001 20.8996 5.50304 20.8996 6.0001C20.8996 6.49715 20.4967 6.9001 19.9996 6.9001H3.99961C3.50255 6.9001 3.09961 6.49715 3.09961 6.0001Z" fill="black"/>
<path fill-rule="evenodd" clip-rule="evenodd" d="M3.09961 12.0001C3.09961 11.503 3.41653 11.1001 3.80747 11.1001H16.3917C16.7827 11.1001 17.0996 11.503 17.0996 12.0001C17.0996 12.4972 16.7827 12.9001 16.3917 12.9001H3.80747C3.41653 12.9001 3.09961 12.4972 3.09961 12.0001Z" fill="black"/>
<path fill-rule="evenodd" clip-rule="evenodd" d="M3.09961 18.0001C3.09961 17.503 3.50255 17.1001 3.99961 17.1001H19.9996C20.4967 17.1001 20.8996 17.503 20.8996 18.0001C20.8996 18.4972 20.4967 18.9001 19.9996 18.9001H3.99961C3.50255 18.9001 3.09961 18.4972 3.09961 18.0001Z" fill="black"/>
</svg>
